HIERARCHY
ROOT Hips
{
	OFFSET 0.000000 83.214638 0.000000
	CHANNELS 6 Xposition Yposition Zposition Xrotation Yrotation Zrotation
	JOINT Pelvis
	{
		OFFSET 0.000000 0.000000 0.000000
		CHANNELS 3 Xrotation Yrotation Zrotation
		JOINT LeftUpLeg
		{
			OFFSET 8.479700 -4.795502 -0.379100
			CHANNELS 3 Xrotation Yrotation Zrotation
			JOINT LeftLeg
			{
				OFFSET 0.024144 -32.555107 0.112900
				CHANNELS 3 Xrotation Yrotation Zrotation
				JOINT LeftFoot
				{
					OFFSET -0.024144 -32.638630 -3.012600
					CHANNELS 3 Xrotation Yrotation Zrotation
					JOINT LeftToeBase
					{
						OFFSET 0.970200 -13.225400 11.864200
						CHANNELS 3 Xrotation Yrotation Zrotation
						End Site
						{
							OFFSET 0.000000 12.319262 0.000000
						}
					}
					JOINT LFootTongue
					{
						OFFSET 1.142400 -1.059800 6.665200
						CHANNELS 3 Xrotation Yrotation Zrotation
						End Site
						{
							OFFSET 0.000000 12.319262 0.000000
						}
					}
				}
				JOINT LeftPantLeg
				{
					OFFSET 0.918482 -16.533964 -2.284700
					CHANNELS 3 Xrotation Yrotation Zrotation
					End Site
					{
						OFFSET 0.350399 24.744368 0.000000
					}
				}
			}
		}
		JOINT RightUpLeg
		{
			OFFSET -8.479700 -4.795502 -0.379100
			CHANNELS 3 Xrotation Yrotation Zrotation
			JOINT RightLeg
			{
				OFFSET -0.023144 -32.555092 0.112900
				CHANNELS 3 Xrotation Yrotation Zrotation
				JOINT RightFoot
				{
					OFFSET 0.023144 -32.638641 -3.012700
					CHANNELS 3 Xrotation Yrotation Zrotation
					JOINT RightToeBase
					{
						OFFSET -0.970200 -13.225400 11.864200
						CHANNELS 3 Xrotation Yrotation Zrotation
						End Site
						{
							OFFSET 0.000000 12.319244 0.000000
						}
					}
					JOINT RFootTongue
					{
						OFFSET -1.142200 -1.059800 6.665200
						CHANNELS 3 Xrotation Yrotation Zrotation
						End Site
						{
							OFFSET 0.000000 12.319243 0.000000
						}
					}
				}
				JOINT RightPantLeg
				{
					OFFSET -0.919482 -16.533978 -2.284800
					CHANNELS 3 Xrotation Yrotation Zrotation
					End Site
					{
						OFFSET -0.350400 24.744419 0.000000
					}
				}
			}
		}
	}
	JOINT Spine
	{
		OFFSET 0.000000 7.722000 1.166200
		CHANNELS 3 Xrotation Yrotation Zrotation
		JOINT Spine1
		{
			OFFSET 0.000000 12.024101 0.248800
			CHANNELS 3 Xrotation Yrotation Zrotation
			JOINT Spine2
			{
				OFFSET 0.000000 11.502998 -0.491200
				CHANNELS 3 Xrotation Yrotation Zrotation
				JOINT Neck
				{
					OFFSET 0.000000 18.430702 -3.123100
					CHANNELS 3 Xrotation Yrotation Zrotation
					JOINT Head
					{
						OFFSET 0.000000 9.051102 1.034000
						CHANNELS 3 Xrotation Yrotation Zrotation
						JOINT HairB
						{
							OFFSET 0.208400 24.786102 24.822300
							CHANNELS 3 Xrotation Yrotation Zrotation
							End Site
							{
								OFFSET 0.000000 32.263779 0.000000
							}
						}
						JOINT HairA
						{
							OFFSET -7.081100 24.428299 23.196600
							CHANNELS 3 Xrotation Yrotation Zrotation
							End Site
							{
								OFFSET 0.000000 32.263779 0.000000
							}
						}
						JOINT Hat
						{
							OFFSET 16.728800 15.048294 -15.439601
							CHANNELS 3 Xrotation Yrotation Zrotation
							End Site
							{
								OFFSET 0.000000 32.263779 0.000000
							}
						}
					}
				}
				JOINT LeftShoulder
				{
					OFFSET 6.197800 13.665199 -4.064700
					CHANNELS 3 Xrotation Yrotation Zrotation
					JOINT LeftArm
					{
						OFFSET 7.778100 -0.187103 -1.709300
						CHANNELS 3 Xrotation Yrotation Zrotation
						JOINT LeftForeArm
						{
							OFFSET 22.049376 0.000000 0.000000
							CHANNELS 3 Xrotation Yrotation Zrotation
							JOINT LeftHand
							{
								OFFSET 23.009392 0.000000 0.000000
								CHANNELS 3 Xrotation Yrotation Zrotation
								JOINT LeftHandThumb1
								{
									OFFSET 3.507191 -2.063065 3.133727
									CHANNELS 3 Xrotation Yrotation Zrotation
									JOINT LeftHandThumb2
									{
										OFFSET 3.101337 -1.790558 1.790558
										CHANNELS 3 Xrotation Yrotation Zrotation
										JOINT LeftHandThumb3
										{
											OFFSET 3.058640 -1.765907 1.765906
											CHANNELS 3 Xrotation Yrotation Zrotation
											End Site
											{
												OFFSET -0.415260 3.926476 -0.049563
											}
										}
									}
								}
								JOINT LeftHandIndex1
								{
									OFFSET 11.334419 -0.901459 3.706815
									CHANNELS 3 Xrotation Yrotation Zrotation
									JOINT LeftHandIndex2
									{
										OFFSET 3.283112 0.000000 0.000000
										CHANNELS 3 Xrotation Yrotation Zrotation
										JOINT LeftHandIndex3
										{
											OFFSET 3.323853 0.000000 0.000000
											CHANNELS 3 Xrotation Yrotation Zrotation
											End Site
											{
												OFFSET -1.135597 3.097809 0.402452
											}
										}
									}
								}
								JOINT LeftHandMiddle1
								{
									OFFSET 11.335861 0.000000 0.000000
									CHANNELS 3 Xrotation Yrotation Zrotation
									JOINT LeftHandMiddle2
									{
										OFFSET 3.410492 0.000000 0.000000
										CHANNELS 3 Xrotation Yrotation Zrotation
										JOINT LeftHandMiddle3
										{
											OFFSET 3.312172 0.000000 0.000000
											CHANNELS 3 Xrotation Yrotation Zrotation
											End Site
											{
												OFFSET -1.150200 3.080154 0.400270
											}
										}
									}
								}
								JOINT LeftHandRing1
								{
									OFFSET 11.514786 -0.013176 -3.003090
									CHANNELS 3 Xrotation Yrotation Zrotation
									JOINT LeftHandRing2
									{
										OFFSET 3.053307 0.000000 0.000000
										CHANNELS 3 Xrotation Yrotation Zrotation
										JOINT LeftHandRing3
										{
											OFFSET 3.295807 0.000000 0.000000
											CHANNELS 3 Xrotation Yrotation Zrotation
											End Site
											{
												OFFSET -1.281006 3.013344 0.375733
											}
										}
									}
								}
								JOINT LeftHandPinky1
								{
									OFFSET 10.518692 -0.960396 -5.730441
									CHANNELS 3 Xrotation Yrotation Zrotation
									JOINT LeftHandPinky2
									{
										OFFSET 2.861649 0.000000 0.000000
										CHANNELS 3 Xrotation Yrotation Zrotation
										JOINT LeftHandPinky3
										{
											OFFSET 2.863380 0.000000 0.000000
											CHANNELS 3 Xrotation Yrotation Zrotation
											End Site
											{
												OFFSET -0.843597 2.711159 0.369971
											}
										}
									}
								}
							}
							JOINT LSleeve
							{
								OFFSET 6.676277 -0.344902 -1.011730
								CHANNELS 3 Xrotation Yrotation Zrotation
								End Site
								{
									OFFSET 0.000000 14.885353 0.000000
								}
							}
						}
					}
				}
				JOINT RightShoulder
				{
					OFFSET -6.197800 13.665199 -4.064700
					CHANNELS 3 Xrotation Yrotation Zrotation
					JOINT RightArm
					{
						OFFSET -7.778100 -0.187103 -1.709300
						CHANNELS 3 Xrotation Yrotation Zrotation
						JOINT RightForeArm
						{
							OFFSET -22.049376 0.000000 0.000000
							CHANNELS 3 Xrotation Yrotation Zrotation
							JOINT RightHand
							{
								OFFSET -23.009392 0.000000 0.000000
								CHANNELS 3 Xrotation Yrotation Zrotation
								JOINT RightHandThumb1
								{
									OFFSET -3.507191 -2.063065 3.133727
									CHANNELS 3 Xrotation Yrotation Zrotation
									JOINT RightHandThumb2
									{
										OFFSET -3.101337 -1.790558 1.790558
										CHANNELS 3 Xrotation Yrotation Zrotation
										JOINT RightHandThumb3
										{
											OFFSET -3.058640 -1.765907 1.765906
											CHANNELS 3 Xrotation Yrotation Zrotation
											End Site
											{
												OFFSET 0.415260 3.926476 -0.049563
											}
										}
									}
								}
								JOINT RightHandIndex1
								{
									OFFSET -11.334419 -0.901459 3.706815
									CHANNELS 3 Xrotation Yrotation Zrotation
									JOINT RightHandIndex2
									{
										OFFSET -3.283112 0.000000 0.000000
										CHANNELS 3 Xrotation Yrotation Zrotation
										JOINT RightHandIndex3
										{
											OFFSET -3.323853 0.000000 0.000000
											CHANNELS 3 Xrotation Yrotation Zrotation
											End Site
											{
												OFFSET 1.135597 3.097809 0.402452
											}
										}
									}
								}
								JOINT RightHandMiddle1
								{
									OFFSET -11.335861 0.000000 0.000000
									CHANNELS 3 Xrotation Yrotation Zrotation
									JOINT RightHandMiddle2
									{
										OFFSET -3.410492 0.000000 0.000000
										CHANNELS 3 Xrotation Yrotation Zrotation
										JOINT RightHandMiddle3
										{
											OFFSET -3.312172 0.000000 0.000000
											CHANNELS 3 Xrotation Yrotation Zrotation
											End Site
											{
												OFFSET 1.150200 3.080154 0.400270
											}
										}
									}
								}
								JOINT RightHandRing1
								{
									OFFSET -11.514786 -0.013176 -3.003090
									CHANNELS 3 Xrotation Yrotation Zrotation
									JOINT RightHandRing2
									{
										OFFSET -3.053307 0.000000 0.000000
										CHANNELS 3 Xrotation Yrotation Zrotation
										JOINT RightHandRing3
										{
											OFFSET -3.295807 0.000000 0.000000
											CHANNELS 3 Xrotation Yrotation Zrotation
											End Site
											{
												OFFSET 1.281006 3.013344 0.375733
											}
										}
									}
								}
								JOINT RightHandPinky1
								{
									OFFSET -10.518692 -0.960396 -5.730441
									CHANNELS 3 Xrotation Yrotation Zrotation
									JOINT RightHandPinky2
									{
										OFFSET -2.861649 0.000000 0.000000
										CHANNELS 3 Xrotation Yrotation Zrotation
										JOINT RightHandPinky3
										{
											OFFSET -2.863380 0.000000 0.000000
											CHANNELS 3 Xrotation Yrotation Zrotation
											End Site
											{
												OFFSET 0.843597 2.711159 0.369971
											}
										}
									}
								}
							}
							JOINT RSleeve
							{
								OFFSET -6.676277 -0.344902 -1.011730
								CHANNELS 3 Xrotation Yrotation Zrotation
								End Site
								{
									OFFSET 0.000000 14.885353 0.000000
								}
							}
						}
					}
				}
				JOINT Backpack
				{
					OFFSET 0.000000 -2.471497 36.677502
					CHANNELS 3 Xrotation Yrotation Zrotation
					End Site
					{
						OFFSET 0.000000 20.427315 0.000000
					}
				}
				JOINT Hood
				{
					OFFSET 0.000000 18.754097 -10.431000
					CHANNELS 3 Xrotation Yrotation Zrotation
					JOINT Hood1
					{
						OFFSET 0.000000 -5.011002 -7.685901
						CHANNELS 3 Xrotation Yrotation Zrotation
						End Site
						{
							OFFSET 0.000000 9.175140 0.000000
						}
					}
				}
				JOINT LHoodieString
				{
					OFFSET 5.250500 16.397697 3.089900
					CHANNELS 3 Xrotation Yrotation Zrotation
					JOINT LHoodieString1
					{
						OFFSET 0.257700 -6.364304 3.694600
						CHANNELS 3 Xrotation Yrotation Zrotation
						JOINT LHoodieString2
						{
							OFFSET 0.000000 -9.643799 2.679100
							CHANNELS 3 Xrotation Yrotation Zrotation
							End Site
							{
								OFFSET 0.000000 10.009018 0.000000
							}
						}
					}
				}
				JOINT RHoodieString
				{
					OFFSET -5.250500 16.397697 3.089900
					CHANNELS 3 Xrotation Yrotation Zrotation
					JOINT RHoodieString1
					{
						OFFSET -0.257700 -6.364304 3.694600
						CHANNELS 3 Xrotation Yrotation Zrotation
						JOINT RHoodieString2
						{
							OFFSET 0.000000 -9.643799 2.679100
							CHANNELS 3 Xrotation Yrotation Zrotation
							End Site
							{
								OFFSET 0.000000 10.009018 0.000000
							}
						}
					}
				}
			}
			JOINT LBackpack_Strap
			{
				OFFSET 15.223200 -7.719803 -6.610900
				CHANNELS 3 Xrotation Yrotation Zrotation
				End Site
				{
					OFFSET 0.000000 16.040596 0.000000
				}
			}
			JOINT RBackpack_Strap
			{
				OFFSET -15.223000 -7.719803 -6.610900
				CHANNELS 3 Xrotation Yrotation Zrotation
				End Site
				{
					OFFSET 0.000000 16.040596 0.000000
				}
			}
		}
	}
	JOINT BoyFacialAnim_Joint
	{
		OFFSET 1.000000 -82.208099 -1.550900
		CHANNELS 3 Xrotation Yrotation Zrotation
		End Site
		{
			OFFSET 0.000000 30.012791 0.000000
		}
	}
}
MOTION
Frames: 4
Frame Time: 0.033333
4.302532 77.976364 0.095075 4.295760 -36.741439 -2.448142 -0.000000 0.000001 -0.000000 -31.170791 10.860298 17.992532 42.192681 -4.547384 1.302812 -16.365572 1.033978 -6.166072 -0.000000 -0.000002 -0.000000 -0.000000 -0.000002 -0.000000 -0.000000 0.000002 0.000000 -17.782394 -8.505244 -11.165899 29.562493 6.709029 3.116168 -15.272810 -1.835857 8.912640 -0.000000 0.000000 0.000000 -0.000000 0.000000 0.000000 0.000001 -0.000000 0.000000 11.634108 2.066641 1.834214 1.347896 0.241870 0.857402 1.344525 0.254346 0.855232 7.376234 2.037914 -9.126258 5.101289 4.123519 -6.931327 0.000003 0.000000 -0.000001 0.000003 0.000000 -0.000001 0.000003 0.000000 -0.000001 4.726304 -2.921247 -9.382972 -30.097150 -14.989094 -59.257273 0.000022 -129.632223 0.000017 -10.694230 -8.166068 14.597170 -1.540036 3.690177 6.142354 47.743296 22.496958 -50.261501 0.000001 -0.000001 -0.000002 7.355444 6.864928 -93.961376 9.095304 6.516906 -108.811505 -0.000001 0.000000 0.000002 4.842981 7.483091 -102.292916 7.069680 6.878616 -91.573350 0.000002 -0.000002 -0.000002 -0.568948 8.762716 -102.911341 7.547436 6.849046 -95.569373 0.000001 -0.000001 -0.000001 1.006336 8.026884 -100.041876 7.190434 2.787991 -92.581438 -0.000000 -0.000001 0.000001 -0.000000 0.000002 -0.000003 8.983262 10.285938 7.813937 -38.091828 46.838227 59.642503 0.000008 108.933697 0.000001 -13.728901 1.718009 -20.234782 -1.849256 -3.581788 -6.586129 56.641393 -26.293916 42.888807 -0.000003 -0.000000 0.000001 7.103961 -6.946521 91.287295 11.010705 -5.641629 125.846645 -0.000002 -0.000002 -0.000000 6.410593 -6.928079 84.817187 9.156916 -6.589457 108.577004 0.000003 0.000000 0.000003 1.213046 -6.631127 86.708671 9.490811 -6.468445 111.512947 -0.000001 -0.000001 0.000002 -4.888680 -5.534895 82.992802 8.534061 -6.765728 103.224376 0.000001 0.000004 0.000001 -0.000001 0.000003 -0.000002 0.000001 0.000000 0.000000 0.000001 0.000000 0.000000 0.000001 0.000000 0.000000 0.000001 0.000000 0.000000 0.000001 0.000000 0.000000 -0.000001 0.000002 -0.000001 0.000001 0.000000 0.000000 0.000001 0.000000 0.000000 -0.000001 0.000002 -0.000001 0.000000 -0.000000 -0.000000 0.000000 -0.000000 -0.000000 -0.000000 0.000001 -0.000000 
4.990820 78.068153 -1.589300 6.076161 -37.837458 -2.079321 -0.000000 -0.000000 -0.000001 -34.146732 10.178336 18.940292 41.746031 -3.669905 1.463334 -14.333362 1.126814 -6.604813 0.000000 0.000002 -0.000000 0.000000 0.000002 -0.000000 0.000000 0.000001 -0.000001 -20.871351 -8.459246 -10.529604 29.564296 7.733982 4.295806 -14.449298 -1.385168 7.523232 0.000000 0.000003 0.000000 0.000000 0.000003 0.000000 -0.000000 -0.000001 0.000001 11.469897 1.549817 0.320737 1.464264 0.177121 1.311636 1.460347 0.204219 1.309679 6.723306 2.003211 -8.692098 4.192757 4.178574 -6.126225 0.000003 0.000001 -0.000000 0.000003 0.000001 -0.000000 0.000003 0.000001 -0.000000 4.968830 -4.123199 -8.287652 -32.519203 -14.259934 -58.174333 -0.000000 -128.885424 -0.000001 -10.688175 -8.071183 14.788236 -1.540039 3.690173 6.142353 47.743289 22.496954 -50.261494 0.000000 -0.000001 0.000002 7.355440 6.864931 -93.961376 9.095304 6.516907 -108.811505 0.000001 0.000003 -0.000005 4.842982 7.483088 -102.292916 7.069679 6.878623 -91.573343 -0.000003 0.000000 0.000000 -0.568951 8.762712 -102.911341 7.547429 6.849041 -95.569373 0.000000 0.000001 -0.000005 1.006336 8.026878 -100.041876 7.190431 2.787995 -92.581445 -0.000002 -0.000001 0.000001 -0.000002 0.000004 -0.000001 8.773759 9.445978 7.798070 -39.039917 46.782373 61.788944 0.000041 108.623647 -0.000053 -13.545359 1.773820 -19.549868 -1.849256 -3.581787 -6.586129 56.641389 -26.293913 42.888800 0.000000 0.000000 -0.000000 7.103960 -6.946520 91.287295 11.010696 -5.641625 125.846659 -0.000001 0.000001 0.000005 6.410594 -6.928076 84.817187 9.156910 -6.589458 108.577004 0.000003 0.000001 0.000002 1.213046 -6.631127 86.708671 9.490809 -6.468446 111.512940 -0.000000 -0.000002 0.000000 -4.888680 -5.534889 82.992809 8.534056 -6.765725 103.224376 0.000000 -0.000001 0.000000 0.000000 -0.000003 0.000001 0.000001 0.000001 -0.000000 0.000001 0.000001 -0.000000 0.000001 0.000001 -0.000000 0.000001 0.000001 -0.000000 0.000001 0.000001 -0.000000 -0.000002 0.000003 -0.000000 0.000001 0.000001 -0.000000 0.000001 0.000001 -0.000000 -0.000002 0.000003 -0.000000 0.000002 -0.000001 0.000001 0.000002 -0.000001 0.000001 -0.000000 -0.000000 -0.000001 
5.544657 78.198067 -3.220617 7.276363 -38.639241 -1.869928 -0.000000 -0.000001 -0.000000 -36.303019 9.884259 19.950185 40.798376 -3.411739 1.434914 -12.232725 1.083694 -6.833267 -0.000000 0.000000 -0.000000 -0.000000 0.000000 0.000000 -0.000000 -0.000001 0.000001 -22.803495 -8.467603 -10.944303 29.697266 8.246342 5.313093 -14.749454 -1.197076 9.922740 -0.000000 0.000002 0.000000 -0.000000 0.000002 0.000000 0.000001 -0.000004 0.000000 11.511262 1.450223 -0.684583 1.629892 0.173538 1.447705 1.625898 0.207230 1.446208 6.517686 1.937346 -8.540444 3.601438 3.917556 -5.242074 -0.000001 0.000002 0.000001 -0.000001 0.000002 0.000001 -0.000001 0.000002 0.000001 5.248781 -5.443258 -7.420449 -34.880953 -13.711647 -56.980327 0.000031 -127.845486 0.000015 -10.705610 -7.965574 14.985382 -1.540036 3.690175 6.142350 47.743296 22.496956 -50.261494 0.000000 -0.000001 0.000001 7.355443 6.864929 -93.961376 9.095294 6.516909 -108.811505 0.000002 0.000001 -0.000003 4.842987 7.483087 -102.292916 7.069681 6.878619 -91.573350 0.000002 0.000003 0.000001 -0.568952 8.762713 -102.911341 7.547428 6.849040 -95.569373 0.000001 -0.000001 -0.000004 1.006334 8.026884 -100.041870 7.190430 2.787993 -92.581438 0.000001 -0.000001 0.000001 0.000003 -0.000001 0.000002 8.764921 9.353311 7.758081 -39.767038 46.075787 63.558961 0.000049 108.130029 -0.000037 -13.732310 1.753667 -18.983175 -1.849256 -3.581792 -6.586128 56.641393 -26.293908 42.888803 -0.000002 0.000000 0.000001 7.103959 -6.946525 91.287295 11.010701 -5.641628 125.846659 -0.000000 0.000001 0.000000 6.410594 -6.928081 84.817187 9.156914 -6.589458 108.577004 0.000002 -0.000000 -0.000002 1.213047 -6.631122 86.708671 9.490804 -6.468447 111.512947 0.000001 0.000004 0.000003 -4.888680 -5.534893 82.992802 8.534066 -6.765728 103.224376 -0.000000 0.000003 -0.000001 -0.000000 -0.000003 -0.000001 -0.000000 -0.000003 0.000000 -0.000000 -0.000003 0.000000 -0.000000 -0.000003 0.000000 -0.000000 -0.000003 0.000000 -0.000000 -0.000003 0.000001 -0.000002 -0.000001 -0.000000 -0.000000 -0.000003 0.000000 -0.000000 -0.000003 0.000001 -0.000002 -0.000001 -0.000000 -0.000001 0.000000 -0.000000 -0.000001 0.000000 -0.000000 -0.000000 -0.000001 -0.000000 
5.986951 78.344254 -4.684946 7.764069 -38.933246 -2.008083 -0.000001 0.000002 0.000000 -37.610153 9.663823 20.620683 39.568997 -3.420470 1.646742 -10.171734 1.020491 -7.113569 -0.000000 0.000000 -0.000000 -0.000000 0.000000 -0.000000 -0.000000 -0.000001 0.000000 -22.154622 -8.643079 -11.895488 28.076138 6.589711 5.601995 -13.769427 -0.798824 14.523917 -0.000000 0.000002 0.000000 -0.000000 0.000002 0.000000 0.000001 0.000001 -0.000002 11.725269 1.627519 -0.794647 1.730098 0.205417 1.296399 1.726193 0.236516 1.295418 6.725202 1.863262 -8.659770 3.598897 3.435143 -4.806889 0.000001 -0.000002 0.000001 0.000001 -0.000002 0.000001 0.000001 -0.000002 0.000001 5.467224 -6.449948 -6.952050 -36.400868 -13.591767 -56.151374 0.000019 -126.997081 0.000035 -10.694034 -7.875757 15.294464 -1.540029 3.690177 6.142355 47.743292 22.496959 -50.261494 -0.000001 0.000001 0.000001 7.355444 6.864931 -93.961376 9.095302 6.516906 -108.811505 -0.000003 -0.000000 -0.000005 4.842984 7.483089 -102.292916 7.069680 6.878617 -91.573350 0.000003 0.000000 -0.000003 -0.568946 8.762714 -102.911341 7.547427 6.849044 -95.569373 0.000000 -0.000002 -0.000004 1.006336 8.026884 -100.041870 7.190434 2.787996 -92.581445 -0.000000 -0.000001 0.000003 -0.000001 0.000000 0.000000 8.883649 9.849671 7.677430 -40.156892 45.186319 64.539940 0.000002 107.532750 -0.000007 -13.917209 1.681756 -18.796274 -1.849258 -3.581788 -6.586129 56.641389 -26.293915 42.888810 -0.000004 0.000001 -0.000000 7.103959 -6.946526 91.287295 11.010700 -5.641630 125.846659 0.000000 0.000001 0.000000 6.410592 -6.928071 84.817187 9.156913 -6.589460 108.577004 0.000001 0.000001 -0.000000 1.213046 -6.631120 86.708671 9.490808 -6.468447 111.512940 0.000001 0.000001 0.000000 -4.888683 -5.534887 82.992802 8.534063 -6.765727 103.224376 0.000001 0.000003 0.000001 -0.000001 0.000000 0.000003 -0.000000 0.000001 -0.000001 -0.000000 0.000001 -0.000001 -0.000000 0.000001 -0.000001 -0.000000 0.000001 -0.000001 -0.000000 0.000001 -0.000001 -0.000002 -0.000001 -0.000000 -0.000000 0.000001 -0.000001 -0.000000 0.000001 -0.000001 -0.000002 -0.000001 -0.000000 0.000002 -0.000003 0.000002 0.000002 -0.000003 0.000002 -0.000001 0.000002 0.000000 
